#N canvas 93 41 876 861 10;
#X obj 199 24 metro 500;
#X obj 200 190 random 1;
#X obj 200 216 route 0 1 2 3 4 5;
#X floatatom 276 157 5 1 6 0 - scaleRange -;
#X obj 237 543 makenote;
#X obj 603 207 bng 15 250 50 0 empty empty empty 17 7 0 10 -262144
-1 -1;
#X msg 603 244 127;
#X obj 603 369 -;
#X floatatom 675 244 5 0 120 0 - velocityRange -;
#N canvas 734 260 823 670 synth 1;
#X obj 113 23 inlet;
#X obj 604 20 inlet;
#X obj 466 530 outlet~;
#X obj 113 72 mtof;
#X obj 266 127 * 2;
#X obj 113 266 *~;
#X obj 267 264 *~;
#X obj 434 265 *~;
#X obj 172 343 +~;
#X obj 419 360 +~;
#X obj 604 124 / 127;
#X obj 464 429 *~;
#X floatatom 646 184 5 0 0 0 - - -;
#X obj 113 185 osc~ 440;
#X obj 267 185 osc~ 440;
#X obj 434 186 osc~ 440;
#X msg 175 220 0.3;
#X msg 337 220 0.5;
#X msg 497 218 0.2;
#X obj 394 57 loadbang;
#X obj 434 128 * 3;
#X floatatom 221 428 5 0 0 0 - - -;
#X obj 10 317 osc~ 440;
#X obj 68 414 +~;
#X obj 10 163 / 2;
#X obj 271 504 *~ 0.3;
#X obj 54 230 osc~ 440;
#X obj 59 179 / 3;
#X obj 122 473 bp~ 7500 30;
#X obj 285 374 pack 0 50;
#X obj 259 404 line;
#X obj 322 322 * 7;
#X floatatom 599 393 5 0 0 0 - - velocityin;
#X obj 604 303 line;
#X obj 654 343 * 127;
#X text 635 395 send: velocityin;
#X obj 604 270 pack 0 1000;
#X connect 0 0 3 0;
#X connect 1 0 10 0;
#X connect 3 0 4 0;
#X connect 3 0 13 0;
#X connect 3 0 20 0;
#X connect 3 0 24 0;
#X connect 3 0 27 0;
#X connect 4 0 14 0;
#X connect 5 0 8 0;
#X connect 6 0 8 1;
#X connect 7 0 9 1;
#X connect 8 0 9 0;
#X connect 9 0 11 0;
#X connect 10 0 12 0;
#X connect 10 0 36 0;
#X connect 11 0 2 0;
#X connect 13 0 5 0;
#X connect 14 0 6 0;
#X connect 15 0 7 0;
#X connect 16 0 5 1;
#X connect 17 0 6 1;
#X connect 18 0 7 1;
#X connect 19 0 16 0;
#X connect 19 0 17 0;
#X connect 19 0 18 0;
#X connect 20 0 15 0;
#X connect 21 0 28 2;
#X connect 22 0 23 0;
#X connect 23 0 28 0;
#X connect 24 0 22 0;
#X connect 25 0 11 0;
#X connect 26 0 23 1;
#X connect 27 0 26 0;
#X connect 28 0 25 0;
#X connect 29 0 30 0;
#X connect 30 0 21 0;
#X connect 31 0 29 0;
#X connect 33 0 11 1;
#X connect 33 0 31 0;
#X connect 33 0 34 0;
#X connect 34 0 32 0;
#X connect 36 0 33 0;
#X restore 237 574 pd synth;
#X obj 286 711 dac~;
#X obj 521 41 random 1;
#X floatatom 566 14 5 1 6 0 - tempoRange -;
#X msg 475 108 500;
#X msg 509 108 1000;
#X msg 554 108 250;
#X obj 499 67 route 0 1 2 3 4 5;
#X floatatom 531 167 5 0 0 0 - - durationin;
#X obj 124 69 tgl 15 0 empty empty empty 17 7 0 10 -262144 -1 -1 1
1;
#X msg 140 397 55;
#X msg 179 397 57;
#X msg 216 397 59;
#X msg 251 397 62;
#X msg 291 397 64;
#X msg 330 398 67;
#X obj 116 293 random 2;
#X obj 116 321 route 0 1;
#X floatatom 100 560 5 0 0 0 - - notein;
#X text 318 151 receive: scaleRange;
#X text 604 15 receive: tempoRange;
#X text 674 262 receive: velocityRange;
#X text 569 170 send: durationin;
#X floatatom 298 8 5 0 0 0 - durationin -;
#X text 295 25 receive: durationin;
#X text 98 579 send: notein;
#X obj 297 634 *~;
#X obj 38 28 loadbang;
#X msg 358 584 0.5;
#X obj 501 525 loadbang;
#X msg 350 514 5000;
#X obj 237 484 line;
#X obj 237 456 pack 0 50;
#X obj 237 510 i;
#X msg 593 108 750;
#X connect 0 0 1 0;
#X connect 0 0 11 0;
#X connect 1 0 2 0;
#X connect 1 0 5 0;
#X connect 2 0 19 0;
#X connect 2 1 21 0;
#X connect 2 2 24 0;
#X connect 2 3 23 0;
#X connect 2 4 25 0;
#X connect 2 5 25 0;
#X connect 3 0 1 1;
#X connect 4 0 9 0;
#X connect 4 0 27 0;
#X connect 4 1 9 1;
#X connect 5 0 6 0;
#X connect 5 0 39 0;
#X connect 6 0 7 0;
#X connect 7 0 4 1;
#X connect 8 0 7 1;
#X connect 9 0 35 0;
#X connect 11 0 16 0;
#X connect 12 0 11 1;
#X connect 13 0 17 0;
#X connect 14 0 17 0;
#X connect 15 0 17 0;
#X connect 16 0 13 0;
#X connect 16 1 14 0;
#X connect 16 2 15 0;
#X connect 16 3 43 0;
#X connect 16 4 43 0;
#X connect 16 5 15 0;
#X connect 18 0 0 0;
#X connect 19 0 41 0;
#X connect 20 0 41 0;
#X connect 21 0 41 0;
#X connect 22 0 41 0;
#X connect 23 0 41 0;
#X connect 24 0 41 0;
#X connect 25 0 26 0;
#X connect 26 0 20 0;
#X connect 26 1 22 0;
#X connect 32 0 0 1;
#X connect 32 0 4 2;
#X connect 35 0 10 0;
#X connect 35 0 10 1;
#X connect 36 0 18 0;
#X connect 37 0 35 1;
#X connect 38 0 37 0;
#X connect 40 0 42 0;
#X connect 41 0 40 0;
#X connect 42 0 4 0;
#X connect 43 0 17 0;
