#N canvas 57 102 936 651 10;
#X floatatom 277 159 5 0 0 0 - midiin -;
#N canvas 0 181 529 640 arpeggiator 1;
#X obj 72 195 inlet;
#X floatatom 72 243 5 0 0 0 - - -;
#X obj 180 259 bng 15 250 50 0 empty empty empty 17 7 0 10 -262144
-1 -1;
#X obj 198 259 bng 15 250 50 0 empty empty empty 17 7 0 10 -262144
-1 -1;
#X obj 217 259 bng 15 250 50 0 empty empty empty 17 7 0 10 -262144
-1 -1;
#X obj 141 584 outlet;
#X obj 133 45 inlet;
#X obj 72 329 + 0;
#X floatatom 181 346 5 0 0 0 - - -;
#X obj 72 365 + 3;
#X floatatom 198 382 5 0 0 0 - - -;
#X floatatom 217 418 5 0 0 0 - - -;
#X obj 72 401 + 4;
#X obj 180 501 spigot;
#X obj 72 501 spigot;
#X msg 104 456 1;
#X obj 104 429 loadbang;
#X msg 133 300 1;
#X obj 180 212 route 0 1 2 3;
#X obj 338 229 bng 15 250 50 0 empty empty empty 17 7 0 10 -262144
-1 -1;
#X obj 338 252 random 6;
#X obj 338 292 route 0 1 2 3 4 5;
#X obj 338 331 bng 15 250 50 0 empty empty empty 17 7 0 10 -262144
-1 -1;
#X obj 354 367 bng 15 250 50 0 empty empty empty 17 7 0 10 -262144
-1 -1;
#X obj 371 403 bng 15 250 50 0 empty empty empty 17 7 0 10 -262144
-1 -1;
#X obj 387 330 bng 15 250 50 0 empty empty empty 17 7 0 10 -262144
-1 -1;
#X obj 404 351 bng 15 250 50 0 empty empty empty 17 7 0 10 -262144
-1 -1;
#X obj 420 375 bng 15 250 50 0 empty empty empty 17 7 0 10 -262144
-1 -1;
#X text 226 443 MINOR TRIAD FORMULA;
#X floatatom 180 67 5 0 0 0 - counter -;
#X text 219 68 receive: counter;
#X obj 180 120 spigot;
#X floatatom 180 189 5 0 0 0 - - -;
#X obj 248 105 tgl 15 0 empty empty empty 17 7 0 10 -262144 -1 -1 0
127;
#X obj 248 137 sel 0;
#X msg 248 172 0;
#X text 73 24 1.1 ARPEGGIATOR;
#X connect 0 0 1 0;
#X connect 1 0 7 0;
#X connect 1 0 14 0;
#X connect 2 0 8 0;
#X connect 3 0 10 0;
#X connect 4 0 11 0;
#X connect 6 0 17 0;
#X connect 6 0 33 0;
#X connect 7 0 8 0;
#X connect 7 0 9 0;
#X connect 8 0 13 0;
#X connect 9 0 10 0;
#X connect 9 0 12 0;
#X connect 10 0 13 0;
#X connect 11 0 13 0;
#X connect 12 0 11 0;
#X connect 13 0 5 0;
#X connect 14 0 5 0;
#X connect 15 0 14 1;
#X connect 16 0 15 0;
#X connect 17 0 13 1;
#X connect 18 0 2 0;
#X connect 18 1 3 0;
#X connect 18 2 4 0;
#X connect 18 3 19 0;
#X connect 19 0 20 0;
#X connect 20 0 21 0;
#X connect 21 0 22 0;
#X connect 21 1 23 0;
#X connect 21 2 24 0;
#X connect 21 3 25 0;
#X connect 21 4 26 0;
#X connect 21 5 27 0;
#X connect 22 0 8 0;
#X connect 23 0 10 0;
#X connect 24 0 11 0;
#X connect 29 0 31 0;
#X connect 31 0 32 0;
#X connect 32 0 18 0;
#X connect 33 0 31 1;
#X connect 33 0 34 0;
#X connect 34 0 35 0;
#X connect 35 0 32 0;
#X restore 277 223 pd arpeggiator;
#X obj 317 194 tgl 20 0 empty arpt empty 17 7 0 10 -262144 -1 -1 0
127;
#X floatatom 358 194 5 0 0 0 - - -;
#X text 314 174 Arp toggle;
#X obj 606 603 dac~;
#X obj 804 255 vsl 15 128 0 1 0 0 empty masterv empty 0 -9 0 10 -260097
-1 -1 0 1;
#X msg 804 402 \$1 50;
#X obj 804 426 vline~;
#X obj 555 442 *~;
#N canvas 283 170 589 696 delaymodule 0;
#X obj 62 419 inlet~;
#X obj 282 606 outlet~;
#X text 107 418 dry audio;
#X obj 389 78 inlet;
#X text 431 79 feedback;
#X obj 389 109 s f;
#X obj 446 165 r f;
#X obj 62 456 +~;
#X floatatom 244 145 5 0 0 0 - - -;
#X obj 243 439 *~;
#X obj 446 212 vsl 15 128 0 1 0 0 empty empty empty 0 -9 0 10 -262144
-1 -1 0 1;
#X msg 446 374 \$1 50;
#X obj 447 422 vline~;
#X text 474 270 feedback;
#X obj 243 532 spigot~;
#X obj 282 483 tgl 15 0 empty empty empty 17 7 0 10 -262144 -1 -1 1
1;
#X text 305 482 delay on/off;
#X text 288 144 Delay time;
#X obj 244 77 r rr;
#X obj 244 107 * 2;
#X obj 282 454 loadbang;
#X obj 65 607 delwrite~ delaytest 1000;
#X obj 244 183 delread~ delaytest 1000;
#X connect 0 0 7 0;
#X connect 3 0 5 0;
#X connect 6 0 10 0;
#X connect 7 0 14 0;
#X connect 7 0 21 0;
#X connect 8 0 22 0;
#X connect 9 0 7 1;
#X connect 9 0 14 0;
#X connect 10 0 11 0;
#X connect 11 0 12 0;
#X connect 12 0 9 1;
#X connect 14 1 1 0;
#X connect 15 0 14 1;
#X connect 18 0 19 0;
#X connect 19 0 8 0;
#X connect 20 0 15 0;
#X connect 22 0 9 0;
#X restore 277 426 pd delaymodule;
#N canvas 691 354 785 529 synth 0;
#X obj 32 37 inlet;
#X text 73 36 midi note input;
#X obj 32 93 mtof;
#X obj 270 469 outlet~;
#X floatatom 197 54 5 0 0 0 - - -;
#X obj 32 149 osc~;
#X obj 199 148 phasor~;
#X obj 334 147 osc~;
#X obj 475 110 * 4;
#X obj 475 146 osc~;
#X obj 85 171 hsl 60 15 0 1 0 0 empty empty empty -2 -8 0 10 -262144
-1 -1 3540 1;
#X obj 32 186 *~;
#X obj 82 233 line~;
#X msg 82 206 \$1 50;
#X obj 93 118 loadbang;
#X obj 252 173 hsl 60 15 0 1 0 0 empty empty empty -2 -8 0 10 -262144
-1 -1 1947 1;
#X obj 199 188 *~;
#X obj 249 235 line~;
#X msg 249 208 \$1 50;
#X obj 260 120 loadbang;
#X msg 289 147 0.33;
#X obj 387 173 hsl 60 15 0 1 0 0 empty empty empty -2 -8 0 10 -262144
-1 -1 1475 1;
#X obj 334 188 *~;
#X obj 384 235 line~;
#X msg 384 208 \$1 50;
#X obj 395 120 loadbang;
#X obj 528 171 hsl 60 15 0 1 0 0 empty empty empty -2 -8 0 10 -262144
-1 -1 1475 1;
#X obj 475 186 *~;
#X obj 525 233 line~;
#X msg 525 206 \$1 50;
#X obj 536 118 loadbang;
#X obj 112 326 +~;
#X obj 461 326 +~;
#X obj 270 343 +~;
#X obj 270 409 *~;
#X obj 543 394 hsl 60 15 0 1 0 0 empty synthv empty -2 -8 0 10 -262144
-1 -1 0 1;
#X obj 540 456 line~;
#X msg 540 429 \$1 50;
#X text 613 392 receive: synthv;
#X obj 199 110 / 4;
#X msg 122 145 0.6;
#X msg 565 145 0.25;
#X msg 424 147 0.25;
#X obj 334 110 * 2;
#X text 99 361 Arpeggiator Additive Synth;
#X connect 0 0 2 0;
#X connect 0 0 4 0;
#X connect 2 0 5 0;
#X connect 2 0 8 0;
#X connect 2 0 39 0;
#X connect 2 0 43 0;
#X connect 5 0 11 0;
#X connect 6 0 16 0;
#X connect 7 0 22 0;
#X connect 8 0 9 0;
#X connect 9 0 27 0;
#X connect 10 0 13 0;
#X connect 10 0 11 1;
#X connect 11 0 31 0;
#X connect 13 0 12 0;
#X connect 14 0 40 0;
#X connect 15 0 18 0;
#X connect 15 0 16 1;
#X connect 16 0 31 1;
#X connect 18 0 17 0;
#X connect 19 0 20 0;
#X connect 20 0 15 0;
#X connect 21 0 24 0;
#X connect 21 0 22 1;
#X connect 22 0 32 0;
#X connect 24 0 23 0;
#X connect 25 0 42 0;
#X connect 26 0 29 0;
#X connect 26 0 27 1;
#X connect 27 0 32 1;
#X connect 29 0 28 0;
#X connect 30 0 41 0;
#X connect 31 0 33 0;
#X connect 32 0 33 1;
#X connect 33 0 34 0;
#X connect 34 0 3 0;
#X connect 35 0 37 0;
#X connect 35 0 34 1;
#X connect 37 0 36 0;
#X connect 39 0 6 0;
#X connect 40 0 10 0;
#X connect 41 0 26 0;
#X connect 42 0 21 0;
#X connect 43 0 7 0;
#X restore 277 278 pd synth;
#X obj 361 390 hsl 64 12 0 1 0 0 empty dfeed empty -2 -8 0 10 -262144
-1 -1 0 1;
#X text 370 404 delay feedback;
#X obj 374 224 s rr;
#X obj 217 144 bng 15 250 50 0 empty empty empty 17 7 0 10 -262144
-1 -1;
#X obj 217 95 metro 400;
#X obj 298 43 r rr;
#X floatatom 298 79 5 0 0 0 - - -;
#X obj 217 24 tgl 15 0 empty empty empty 17 7 0 10 -262144 -1 -1 1
1;
#X floatatom 277 252 5 0 0 0 - - -;
#X obj 320 9 bng 15 250 50 0 empty empty empty 17 7 0 10 -262144 -1
-1;
#X text 826 356 MASTER VOLUME;
#X obj 123 7 loadbang;
#X obj 216 240 bng 15 250 50 0 empty empty empty 17 7 0 10 -262144
-1 -1;
#N canvas 105 333 1298 480 OSCbridge 0;
#X obj 487 453 oscx/sendOSC;
#X msg 939 411 connect localhost 1390;
#X msg 1012 435 disconnect;
#X msg 55 87 send /counter \$1;
#X msg 169 87 send /pdmaster \$1;
#X msg 289 88 send /pdfeedback \$1;
#X msg 420 88 send /pdkick \$1;
#X msg 633 89 send /hat \$1;
#X msg 530 89 send /snare \$1;
#X msg 736 89 send /pdsynth \$1;
#X floatatom 55 37 5 0 0 0 - counter -;
#X text 52 17 receive: counter;
#X obj 55 61 + 1;
#X floatatom 169 39 5 0 0 0 - masterv -;
#X obj 169 62 * 100;
#X text 166 18 receive: masterv;
#X floatatom 289 38 5 0 0 0 - dfeed -;
#X obj 289 61 * 100;
#X text 286 17 receive: dfeed;
#X floatatom 420 38 5 0 0 0 - kickv -;
#X obj 420 61 * 100;
#X text 417 17 receive: kickv;
#X floatatom 530 38 5 0 0 0 - snarev -;
#X obj 530 61 * 100;
#X text 527 17 receive: snarev;
#X floatatom 633 39 5 0 0 0 - hatv -;
#X obj 633 62 * 100;
#X text 630 18 receive: hatv;
#X floatatom 736 39 5 0 0 0 - synthv -;
#X obj 736 62 * 100;
#X text 733 18 receive: synthv;
#X obj 939 377 loadbang;
#X floatatom 851 41 5 0 0 0 - envsnare -;
#X msg 851 89 send /snaregain \$1;
#X obj 851 66 i;
#X text 847 19 receive: envsnare;
#X floatatom 1006 40 5 0 0 0 - envchords -;
#X obj 1006 65 i;
#X text 1002 18 receive: envchords;
#X msg 1006 90 send /chordsgain \$1;
#X obj 55 339 ctlout;
#X msg 71 284 41;
#X msg 88 309 13;
#X obj 89 249 loadbang;
#X obj 1181 57 bng 15 250 50 0 empty empty empty 17 7 0 10 -262144
-1 -1;
#X msg 1128 122 1;
#X msg 1171 122 0;
#X floatatom 1128 182 5 0 0 0 - - -;
#X obj 1181 88 delay 83;
#X msg 1128 211 send /countercontrol \$1;
#X connect 1 0 0 0;
#X connect 2 0 0 0;
#X connect 3 0 0 0;
#X connect 4 0 0 0;
#X connect 5 0 0 0;
#X connect 6 0 0 0;
#X connect 7 0 0 0;
#X connect 8 0 0 0;
#X connect 9 0 0 0;
#X connect 10 0 12 0;
#X connect 10 0 44 0;
#X connect 12 0 3 0;
#X connect 12 0 40 0;
#X connect 13 0 14 0;
#X connect 14 0 4 0;
#X connect 16 0 17 0;
#X connect 17 0 5 0;
#X connect 19 0 20 0;
#X connect 20 0 6 0;
#X connect 22 0 23 0;
#X connect 23 0 8 0;
#X connect 25 0 26 0;
#X connect 26 0 7 0;
#X connect 28 0 29 0;
#X connect 29 0 9 0;
#X connect 31 0 1 0;
#X connect 32 0 34 0;
#X connect 33 0 0 0;
#X connect 34 0 33 0;
#X connect 36 0 37 0;
#X connect 37 0 39 0;
#X connect 39 0 0 0;
#X connect 41 0 40 1;
#X connect 42 0 40 2;
#X connect 43 0 41 0;
#X connect 43 0 42 0;
#X connect 44 0 45 0;
#X connect 44 0 48 0;
#X connect 45 0 47 0;
#X connect 46 0 47 0;
#X connect 47 0 49 0;
#X connect 48 0 46 0;
#X connect 49 0 0 0;
#X restore 736 538 pd OSCbridge;
#N canvas 382 242 1124 490 MIDIbridge 1;
#X obj 40 16 cnv 15 100 75 empty empty empty 20 12 0 14 -4032 -66577
0;
#X obj 69 28 notein;
#X floatatom 69 64 5 0 0 0 - - midiin;
#X text 147 20 master midi note;
#X text 147 34 send symbol: midiin;
#X obj 141 134 cnv 15 200 200 empty empty empty 20 12 0 14 -233017
-66577 0;
#X obj 181 167 hsl 128 15 0 1 0 0 kickv empty empty -2 -8 0 10 -262144
-1 -1 0 1;
#X obj 181 223 hsl 128 15 0 1 0 0 snarev empty empty -2 -8 0 10 -262144
-1 -1 0 1;
#X obj 181 281 hsl 128 15 0 1 0 0 hatv empty empty -2 -8 0 10 -262144
-1 -1 0 1;
#X obj 42 121 ctlin 2;
#X obj 42 150 / 100;
#X obj 40 207 / 100;
#X obj 40 178 ctlin 3;
#X obj 41 264 / 100;
#X text 267 119 DRUMS VOLUME;
#X text 212 181 Kick send: kickv;
#X text 201 238 Snare send: snarev;
#X text 225 297 Hat send: hatv;
#X obj 41 235 ctlin 4;
#X obj 424 134 cnv 15 200 60 empty empty empty 20 12 0 14 -233017 -66577
0;
#X text 545 119 SYNTH CONTROL;
#X obj 463 158 hsl 128 15 0 1 0 0 synthv empty empty -2 -8 0 10 -262144
-1 -1 0 1;
#X obj 356 141 / 100;
#X obj 628 134 cnv 15 50 60 empty empty empty 20 12 0 14 -233017 -66577
0;
#X obj 639 150 tgl 30 0 arpt empty empty 17 7 0 10 -262130 -1 -1 0
127;
#X text 484 171 Synth send: synthv;
#X text 617 193 Arp Toggle;
#X text 618 205 send: arpt;
#X obj 639 78 ctlin 12;
#X obj 356 112 ctlin 6;
#X obj 425 226 cnv 15 200 60 empty empty empty 20 12 0 14 -233017 -66577
0;
#X text 425 211 CHORD CONTROL;
#X obj 465 249 hsl 128 15 0 1 0 0 chordv empty empty -2 -8 0 10 -262144
-1 -1 0 1;
#X obj 355 232 / 100;
#X obj 355 203 ctlin 5;
#X text 484 263 Chord send: chordv;
#X obj 645 249 bng 35 250 50 0 cbang empty empty 17 7 0 10 -262144
-1 -1;
#X obj 701 249 bng 35 250 50 0 fbang empty empty 17 7 0 10 -262144
-1 -1;
#X obj 756 249 bng 35 250 50 0 gbang empty empty 17 7 0 10 -262144
-1 -1;
#X obj 726 139 bng 60 250 50 0 snaretrig empty empty 17 7 0 10 -262144
-1 -1;
#X text 724 123 SNARE DRUM;
#X obj 726 76 ctlin 22;
#X text 695 206 send: snaretrig;
#X text 648 232 CMAJ;
#X text 705 233 FMAJ;
#X text 761 232 GMAJ;
#X text 801 249 cbang;
#X text 801 259 fbang;
#X text 801 269 gbang;
#X obj 645 294 ctlin 52;
#X obj 701 314 ctlin 53;
#X obj 756 336 ctlin 54;
#X obj 871 140 vsl 25 200 0 1 0 0 dfeed empty empty 0 -9 0 10 -262144
-1 -1 0 1;
#X text 876 121 DELAY FEEDBACK;
#X obj 871 73 ctlin 7;
#X obj 871 99 / 100;
#X text 901 135 send: dfeed;
#X obj 40 16 cnv 15 100 75 empty empty empty 20 12 0 14 -4032 -66577
0;
#X obj 69 28 notein;
#X floatatom 69 64 5 0 0 0 - - midiin;
#X text 147 20 master midi note;
#X text 147 34 send symbol: midiin;
#X obj 141 134 cnv 15 200 200 empty empty empty 20 12 0 14 -233017
-66577 0;
#X obj 181 167 hsl 128 15 0 1 0 0 kickv empty empty -2 -8 0 10 -262144
-1 -1 0 1;
#X obj 181 223 hsl 128 15 0 1 0 0 snarev empty empty -2 -8 0 10 -262144
-1 -1 0 1;
#X obj 181 281 hsl 128 15 0 1 0 0 empty empty empty -2 -8 0 10 -262144
-1 -1 0 1;
#X obj 42 121 ctlin 2;
#X obj 42 150 / 100;
#X obj 40 207 / 100;
#X obj 40 178 ctlin 3;
#X obj 41 264 / 100;
#X text 267 119 DRUMS VOLUME;
#X text 212 181 Kick send: kickv;
#X text 201 238 Snare send: snarev;
#X text 225 297 Hat send: hatv;
#X obj 41 235 ctlin 4;
#X obj 424 134 cnv 15 200 60 empty empty empty 20 12 0 14 -233017 -66577
0;
#X text 545 119 SYNTH CONTROL;
#X obj 463 158 hsl 128 15 0 1 0 0 synthv empty empty -2 -8 0 10 -262144
-1 -1 0 1;
#X obj 356 141 / 100;
#X obj 628 134 cnv 15 50 60 empty empty empty 20 12 0 14 -233017 -66577
0;
#X obj 639 150 tgl 30 0 arpt empty empty 17 7 0 10 -262130 -1 -1 0
127;
#X text 484 171 Synth send: synthv;
#X text 617 193 Arp Toggle;
#X text 618 205 send: arpt;
#X obj 639 78 ctlin 12;
#X obj 356 112 ctlin 6;
#X obj 425 226 cnv 15 200 60 empty empty empty 20 12 0 14 -233017 -66577
0;
#X text 425 211 CHORD CONTROL;
#X obj 465 249 hsl 128 15 0 1 0 0 chordv empty empty -2 -8 0 10 -262144
-1 -1 0 1;
#X obj 355 232 / 100;
#X obj 355 203 ctlin 5;
#X text 484 263 Chord send: chordv;
#X obj 645 249 bng 35 250 50 0 empty empty empty 17 7 0 10 -262144
-1 -1;
#X obj 701 249 bng 35 250 50 0 empty empty empty 17 7 0 10 -262144
-1 -1;
#X obj 756 249 bng 35 250 50 0 empty empty empty 17 7 0 10 -262144
-1 -1;
#X obj 726 139 bng 60 250 50 0 snaretrig empty empty 17 7 0 10 -262144
-1 -1;
#X text 724 123 SNARE DRUM;
#X obj 726 76 ctlin 22;
#X text 695 206 send: snaretrig;
#X text 648 232 CMAJ;
#X text 705 233 FMAJ;
#X text 761 232 GMAJ;
#X text 801 249 cbang;
#X text 801 259 fbang;
#X text 801 269 gbang;
#X obj 645 294 ctlin 52;
#X obj 701 314 ctlin 53;
#X obj 756 336 ctlin 54;
#X obj 871 140 vsl 25 200 0 1 0 0 dfeed empty empty 0 -9 0 10 -262144
-1 -1 0 1;
#X text 876 121 DELAY FEEDBACK;
#X obj 871 73 ctlin 7;
#X obj 871 99 / 100;
#X text 901 135 send: dfeed;
#X text 996 124 MASTER VOLUME;
#X obj 125 350 ctlin 37;
#X obj 192 350 ctlin 38;
#X obj 258 351 ctlin 39;
#X obj 326 351 ctlin 40;
#X obj 125 391 bng 30 250 50 0 1000 empty empty 17 7 0 10 -262144 -1
-1;
#X obj 192 391 bng 30 250 50 0 500 empty empty 17 7 0 10 -262144 -1
-1;
#X obj 258 391 bng 30 250 50 0 250 empty empty 17 7 0 10 -262144 -1
-1;
#X obj 326 391 bng 30 250 50 0 125 empty empty 17 7 0 10 -262144 -1
-1;
#X text 130 420 1000;
#X text 203 420 500;
#X text 270 420 250;
#X text 337 420 125;
#X text 1025 137 send: masterv;
#X obj 992 143 vsl 25 200 0 1 0 0 masterv empty empty 0 -9 0 10 -262144
-1 -1 0 1;
#X obj 992 76 ctlin 9;
#X obj 992 106 / 100;
#X obj 421 329 ctlin 23;
#X obj 421 359 bng 60 250 50 0 basstrig empty empty 17 7 0 10 -262144
-1 -1;
#X text 417 426 send: basstrig;
#X text 995 397 2016 Sourya Sen;
#X connect 1 0 2 0;
#X connect 9 0 10 0;
#X connect 10 0 6 0;
#X connect 11 0 7 0;
#X connect 12 0 11 0;
#X connect 13 0 8 0;
#X connect 18 0 13 0;
#X connect 22 0 21 0;
#X connect 28 0 24 0;
#X connect 29 0 22 0;
#X connect 33 0 32 0;
#X connect 34 0 33 0;
#X connect 41 0 39 0;
#X connect 49 0 36 0;
#X connect 50 0 37 0;
#X connect 51 0 38 0;
#X connect 54 0 55 0;
#X connect 55 0 52 0;
#X connect 58 0 59 0;
#X connect 66 0 67 0;
#X connect 67 0 63 0;
#X connect 68 0 64 0;
#X connect 69 0 68 0;
#X connect 70 0 65 0;
#X connect 75 0 70 0;
#X connect 79 0 78 0;
#X connect 85 0 81 0;
#X connect 86 0 79 0;
#X connect 90 0 89 0;
#X connect 91 0 90 0;
#X connect 98 0 96 0;
#X connect 106 0 93 0;
#X connect 107 0 94 0;
#X connect 108 0 95 0;
#X connect 111 0 112 0;
#X connect 112 0 109 0;
#X connect 115 0 119 0;
#X connect 116 0 120 0;
#X connect 117 0 121 0;
#X connect 118 0 122 0;
#X connect 129 0 130 0;
#X connect 130 0 128 0;
#X connect 131 0 132 0;
#X restore 735 512 pd MIDIbridge;
#N canvas 248 202 1123 705 drums 0;
#X obj 72 632 outlet~;
#X obj 321 633 outlet~;
#X obj 593 630 outlet~;
#X obj 72 401 *~;
#X obj 142 320 vline~;
#X obj 356 134 route 0 1 2 3;
#X obj 356 176 bng 15 250 50 0 resetcounter empty empty 17 7 0 10 -262144
-1 -1;
#X obj 593 368 noise~;
#X obj 656 361 vline~;
#X obj 693 276 delay 1;
#X msg 693 311 0 100;
#X obj 593 464 *~;
#X obj 321 323 noise~;
#X obj 321 383 *~;
#X obj 486 366 vline~;
#X obj 419 243 bng 15 250 50 0 empty snaretrig empty 17 7 0 10 -262144
-1 -1;
#X text 261 242 receive symbol: snaretrig;
#X obj 123 512 hsl 60 15 0 1 0 0 empty kickv empty -2 -8 0 10 -262144
-1 -1 5900 1;
#X obj 120 574 line~;
#X msg 120 547 \$1 50;
#X text 191 510 receive: kickv;
#X obj 72 591 *~;
#X obj 154 449 loadbang;
#X obj 406 520 hsl 60 15 0 1 0 0 empty snarev empty -2 -8 0 10 -262144
-1 -1 2950 1;
#X obj 403 582 line~;
#X msg 403 555 \$1 50;
#X msg 437 485 0.5;
#X obj 437 457 loadbang;
#X obj 321 599 *~;
#X text 474 518 receive: snarev;
#X obj 688 507 hsl 60 15 0 1 0 0 empty hatv empty -2 -8 0 10 -262144
-1 -1 1770 1;
#X obj 685 569 line~;
#X msg 685 542 \$1 50;
#X obj 719 444 loadbang;
#X obj 593 586 *~;
#X text 756 505 receive: hatv;
#X msg 181 278 0 1000;
#X obj 181 240 delay 3;
#X obj 72 276 osc~ 48;
#X msg 154 477 1;
#X msg 719 472 0.3;
#X obj 356 91 counter 3;
#X obj 356 48 metro 500;
#X obj 432 31 r rr;
#X obj 280 13 loadbang;
#X obj 284 33 tgl 15 0 empty empty empty 17 7 0 10 -262144 -1 -1 1
1;
#X floatatom 482 108 5 0 0 0 - - counter;
#X text 359 195 send: resetcounter;
#X obj 593 505 hip~ 7500;
#X obj 516 296 delay 1;
#X msg 656 259 1 1;
#X obj 856 660 outlet~;
#X obj 856 394 noise~;
#X obj 919 387 vline~;
#X obj 956 302 delay 1;
#X msg 956 337 0 100;
#X obj 856 490 *~;
#X obj 951 533 hsl 60 15 0 1 0 0 empty hatv empty -2 -8 0 10 -262144
-1 -1 1770 1;
#X obj 948 595 line~;
#X msg 948 568 \$1 50;
#X obj 982 470 loadbang;
#X obj 856 612 *~;
#X text 1019 531 receive: hatv;
#X msg 982 498 0.3;
#X msg 917 261 1 1;
#X obj 856 531 hip~ 1000;
#X msg 516 326 0 125;
#X obj 142 156 bng 15 250 50 0 empty basstrig empty 17 7 0 10 -262144
-1 -1;
#X text 167 155 receive: basstrig;
#X obj 72 451 lop~ 150;
#X obj 321 491 bp~ 7500 3;
#X msg 486 258 3 1;
#X msg 142 191 3 1;
#X text 521 106 send: counter;
#X text 213 13 1.3 Drums;
#X connect 3 0 69 0;
#X connect 4 0 3 1;
#X connect 5 0 6 0;
#X connect 5 0 50 0;
#X connect 5 1 64 0;
#X connect 5 2 50 0;
#X connect 5 3 64 0;
#X connect 6 0 72 0;
#X connect 7 0 11 0;
#X connect 8 0 11 1;
#X connect 9 0 10 0;
#X connect 10 0 8 0;
#X connect 11 0 48 0;
#X connect 12 0 13 0;
#X connect 13 0 70 0;
#X connect 14 0 13 1;
#X connect 15 0 71 0;
#X connect 17 0 19 0;
#X connect 17 0 21 1;
#X connect 19 0 18 0;
#X connect 21 0 0 0;
#X connect 22 0 39 0;
#X connect 23 0 25 0;
#X connect 23 0 28 1;
#X connect 25 0 24 0;
#X connect 26 0 23 0;
#X connect 27 0 26 0;
#X connect 28 0 1 0;
#X connect 30 0 32 0;
#X connect 30 0 34 1;
#X connect 32 0 31 0;
#X connect 33 0 40 0;
#X connect 34 0 2 0;
#X connect 36 0 4 0;
#X connect 37 0 36 0;
#X connect 38 0 3 0;
#X connect 39 0 17 0;
#X connect 40 0 30 0;
#X connect 41 0 5 0;
#X connect 41 0 46 0;
#X connect 42 0 41 0;
#X connect 43 0 42 1;
#X connect 44 0 45 0;
#X connect 45 0 42 0;
#X connect 48 0 34 0;
#X connect 49 0 66 0;
#X connect 50 0 8 0;
#X connect 50 0 9 0;
#X connect 52 0 56 0;
#X connect 53 0 56 1;
#X connect 54 0 55 0;
#X connect 55 0 53 0;
#X connect 56 0 65 0;
#X connect 57 0 59 0;
#X connect 57 0 61 1;
#X connect 59 0 58 0;
#X connect 60 0 63 0;
#X connect 61 0 51 0;
#X connect 61 0 2 0;
#X connect 63 0 57 0;
#X connect 64 0 53 0;
#X connect 64 0 54 0;
#X connect 65 0 61 0;
#X connect 66 0 14 0;
#X connect 67 0 72 0;
#X connect 69 0 21 0;
#X connect 70 0 28 0;
#X connect 71 0 14 0;
#X connect 71 0 49 0;
#X connect 72 0 4 0;
#X connect 72 0 37 0;
#X restore 350 276 pd drums;
#X obj 76 85 loadbang;
#N canvas 254 74 1091 916 chords 0;
#X msg 48 202 48;
#X msg 109 203 52;
#X msg 164 203 55;
#X obj 109 92 bng 15 250 50 0 empty cbang empty 17 7 0 10 -262144 -1
-1;
#X obj 48 253 mtof;
#X obj 109 253 mtof;
#X obj 164 254 mtof;
#X obj 48 315 osc~;
#X obj 109 314 osc~;
#X obj 164 313 osc~;
#X obj 48 388 *~;
#X obj 238 370 vline~;
#X obj 109 388 *~;
#X obj 165 387 *~;
#X obj 48 434 +~;
#X obj 48 474 +~;
#X obj 421 87 bng 15 250 50 0 empty fbang empty 17 7 0 10 -262144 -1
-1;
#X obj 360 248 mtof;
#X obj 421 248 mtof;
#X obj 476 249 mtof;
#X obj 360 310 osc~;
#X obj 421 309 osc~;
#X obj 476 308 osc~;
#X obj 360 383 *~;
#X obj 550 365 vline~;
#X obj 421 383 *~;
#X obj 477 382 *~;
#X obj 360 429 +~;
#X obj 360 469 +~;
#X text 418 51 FMaj Chord;
#X text 418 65 receive symbol: fbang;
#X text 108 52 CMaj Chord;
#X text 108 67 receive symbol: cbang;
#X obj 745 85 bng 15 250 50 0 empty gbang empty 17 7 0 10 -262144 -1
-1;
#X obj 684 246 mtof;
#X obj 745 246 mtof;
#X obj 800 247 mtof;
#X obj 684 308 osc~;
#X obj 745 307 osc~;
#X obj 800 306 osc~;
#X obj 684 381 *~;
#X obj 874 363 vline~;
#X obj 745 381 *~;
#X obj 801 380 *~;
#X obj 684 427 +~;
#X obj 684 467 +~;
#X text 742 49 GMaj Chord;
#X text 742 63 receive symbol: gbang;
#X msg 360 197 53;
#X msg 421 198 57;
#X msg 476 198 60;
#X msg 684 195 55;
#X msg 745 196 59;
#X msg 800 196 62;
#X obj 346 576 +~;
#X obj 346 629 +~;
#X obj 346 692 *~;
#X obj 533 600 hsl 60 15 0 1 0 0 empty chordv empty -2 -8 0 10 -262144
-1 -1 0 1;
#X obj 530 662 line~;
#X msg 530 635 \$1 50;
#X text 603 598 receive: chordv;
#X obj 346 767 outlet~;
#X msg 238 241 3 1;
#X msg 550 236 3 1;
#X msg 874 234 3 1;
#X obj 277 290 delay 2000;
#X msg 277 328 0 2000;
#X obj 589 285 delay 2000;
#X msg 589 323 0 2000;
#X obj 913 283 delay 2000;
#X msg 913 321 0 2000;
#X text 45 29 1.3 Chords;
#X connect 0 0 4 0;
#X connect 1 0 5 0;
#X connect 2 0 6 0;
#X connect 3 0 0 0;
#X connect 3 0 1 0;
#X connect 3 0 2 0;
#X connect 3 0 62 0;
#X connect 4 0 7 0;
#X connect 5 0 8 0;
#X connect 6 0 9 0;
#X connect 7 0 10 0;
#X connect 8 0 12 0;
#X connect 9 0 13 0;
#X connect 10 0 14 0;
#X connect 11 0 10 1;
#X connect 11 0 12 1;
#X connect 11 0 13 1;
#X connect 12 0 14 1;
#X connect 13 0 15 1;
#X connect 14 0 15 0;
#X connect 15 0 54 0;
#X connect 16 0 48 0;
#X connect 16 0 49 0;
#X connect 16 0 50 0;
#X connect 16 0 63 0;
#X connect 17 0 20 0;
#X connect 18 0 21 0;
#X connect 19 0 22 0;
#X connect 20 0 23 0;
#X connect 21 0 25 0;
#X connect 22 0 26 0;
#X connect 23 0 27 0;
#X connect 24 0 23 1;
#X connect 24 0 25 1;
#X connect 24 0 26 1;
#X connect 25 0 27 1;
#X connect 26 0 28 1;
#X connect 27 0 28 0;
#X connect 28 0 54 1;
#X connect 33 0 51 0;
#X connect 33 0 52 0;
#X connect 33 0 53 0;
#X connect 33 0 64 0;
#X connect 34 0 37 0;
#X connect 35 0 38 0;
#X connect 36 0 39 0;
#X connect 37 0 40 0;
#X connect 38 0 42 0;
#X connect 39 0 43 0;
#X connect 40 0 44 0;
#X connect 41 0 40 1;
#X connect 41 0 42 1;
#X connect 41 0 43 1;
#X connect 42 0 44 1;
#X connect 43 0 45 1;
#X connect 44 0 45 0;
#X connect 45 0 55 1;
#X connect 48 0 17 0;
#X connect 49 0 18 0;
#X connect 50 0 19 0;
#X connect 51 0 34 0;
#X connect 52 0 35 0;
#X connect 53 0 36 0;
#X connect 54 0 55 0;
#X connect 55 0 56 0;
#X connect 56 0 61 0;
#X connect 57 0 59 0;
#X connect 57 0 56 1;
#X connect 59 0 58 0;
#X connect 62 0 11 0;
#X connect 62 0 65 0;
#X connect 63 0 24 0;
#X connect 63 0 67 0;
#X connect 64 0 41 0;
#X connect 64 0 69 0;
#X connect 65 0 66 0;
#X connect 66 0 11 0;
#X connect 67 0 68 0;
#X connect 68 0 24 0;
#X connect 69 0 70 0;
#X connect 70 0 41 0;
#X restore 555 274 pd chords;
#X text 398 194 global metro refresh;
#X msg 76 118 500;
#X msg 76 150 1000;
#X msg 76 182 250;
#X msg 75 213 125;
#X text 263 141 Midi Note receive: midiin;
#X text 371 416 receive: dfeed;
#X obj 42 103 bng 15 250 50 0 empty 500 empty 17 7 0 10 -262144 -1
-1;
#X obj 42 135 bng 15 250 50 0 empty 1000 empty 17 7 0 10 -262144 -1
-1;
#X obj 42 167 bng 15 250 50 0 empty 250 empty 17 7 0 10 -262144 -1
-1;
#X obj 42 199 bng 15 250 50 0 empty 125 empty 17 7 0 10 -262144 -1
-1;
#X text 828 369 receive: masterv;
#X floatatom 379 566 5 0 0 0 - - -;
#X obj 379 528 env~ 1024 1000;
#X floatatom 86 452 5 0 0 0 - - envsnare;
#X obj 63 353 env~ 5000;
#X obj 639 291 env~ 5000;
#X floatatom 720 342 5 0 0 0 - - envchords;
#X obj 639 325 *;
#X obj 705 291 receive chordv;
#X obj 131 354 r snarev;
#X obj 86 408 *;
#X text 124 454 send: envsnare;
#X text 663 358 send: envchords;
#X obj 226 483 env~ 5000;
#X floatatom 198 556 5 0 0 0 - - -;
#X obj 198 521 *;
#X obj 164 483 r dfeed;
#X text 196 572 send: delay2;
#X obj 555 513 lop~ 30;
#X floatatom 176 297 5 0 0 0 - - -;
#X floatatom 502 140 5 0 0 0 - - -;
#X obj 502 211 line;
#X floatatom 502 249 5 0 0 0 - - -;
#X obj 474 291 bp~ 7500 5;
#X msg 502 174 \$1 250;
#N canvas 929 260 445 465 bass 0;
#X obj 42 21 inlet;
#X obj 42 58 mtof;
#X obj 136 407 outlet~;
#X obj 136 322 *~;
#X obj 259 142 route 0 1 2 3 4;
#X obj 259 92 random 5;
#X floatatom 259 117 5 0 0 0 - - -;
#X obj 213 77 bng 15 250 50 0 empty resetcounter empty 17 7 0 10 -262144
-1 -1;
#X obj 293 305 line;
#X msg 225 218 0.5;
#X msg 259 219 0.33;
#X msg 293 219 0.25;
#X msg 326 220 0.1;
#X obj 42 153 / 8;
#X obj 136 374 lop~ 50;
#X obj 42 191 osc~;
#X msg 293 280 \$1 1000;
#X obj 136 194 osc~;
#X obj 136 156 / 4;
#X msg 359 220 0.05;
#X text 235 74 receive: resetcounter;
#X connect 0 0 1 0;
#X connect 1 0 13 0;
#X connect 1 0 18 0;
#X connect 3 0 14 0;
#X connect 4 0 9 0;
#X connect 4 1 10 0;
#X connect 4 2 11 0;
#X connect 4 3 12 0;
#X connect 4 4 19 0;
#X connect 5 0 6 0;
#X connect 6 0 4 0;
#X connect 7 0 5 0;
#X connect 8 0 3 1;
#X connect 9 0 16 0;
#X connect 10 0 16 0;
#X connect 11 0 16 0;
#X connect 12 0 16 0;
#X connect 13 0 15 0;
#X connect 14 0 2 0;
#X connect 15 0 3 0;
#X connect 16 0 8 0;
#X connect 17 0 3 0;
#X connect 18 0 17 0;
#X connect 19 0 16 0;
#X restore 644 173 pd bass;
#X obj 502 108 shuffle 1000 10000;
#X obj 677 220 *~;
#X obj 721 196 *~ 2;
#X obj 277 369 freeverb~;
#X obj 555 335 freeverb~;
#X text 762 22 1 Pd Brains;
#X connect 0 0 1 0;
#X connect 0 0 66 0;
#X connect 1 0 20 0;
#X connect 1 0 24 0;
#X connect 2 0 1 1;
#X connect 2 0 21 0;
#X connect 3 0 14 0;
#X connect 6 0 7 0;
#X connect 7 0 8 0;
#X connect 8 0 9 1;
#X connect 8 0 69 0;
#X connect 9 0 59 0;
#X connect 10 0 9 0;
#X connect 10 0 54 0;
#X connect 11 0 64 0;
#X connect 11 0 70 0;
#X connect 12 0 10 1;
#X connect 15 0 67 0;
#X connect 16 0 15 0;
#X connect 17 0 18 0;
#X connect 18 0 16 1;
#X connect 19 0 16 0;
#X connect 20 0 11 0;
#X connect 21 0 19 0;
#X connect 23 0 19 0;
#X connect 27 0 9 0;
#X connect 27 0 64 0;
#X connect 27 1 10 0;
#X connect 27 1 45 0;
#X connect 27 2 9 0;
#X connect 28 0 31 0;
#X connect 29 0 46 0;
#X connect 29 0 64 0;
#X connect 29 0 71 0;
#X connect 31 0 3 0;
#X connect 32 0 3 0;
#X connect 33 0 3 0;
#X connect 34 0 3 0;
#X connect 37 0 31 0;
#X connect 38 0 32 0;
#X connect 39 0 33 0;
#X connect 40 0 34 0;
#X connect 43 0 42 0;
#X connect 45 0 51 0;
#X connect 46 0 48 0;
#X connect 48 0 47 0;
#X connect 49 0 48 1;
#X connect 50 0 51 1;
#X connect 51 0 44 0;
#X connect 54 0 56 1;
#X connect 56 0 55 0;
#X connect 57 0 56 0;
#X connect 59 0 43 0;
#X connect 59 0 5 0;
#X connect 59 0 5 1;
#X connect 61 0 65 0;
#X connect 62 0 63 0;
#X connect 62 0 64 1;
#X connect 64 0 9 0;
#X connect 64 0 70 0;
#X connect 65 0 62 0;
#X connect 66 0 68 0;
#X connect 67 0 61 0;
#X connect 68 0 9 0;
#X connect 68 0 10 0;
#X connect 69 0 68 1;
#X connect 70 0 10 0;
#X connect 70 1 10 0;
#X connect 71 0 9 0;
